<svg xmlns="http://www.w3.org/2000/svg" viewBox="-14.9282 -49.1051 62.9808 61.3731" width="100%" height="100%">
  <!-- Background -->
  <rect x="-14.9282" y="-49.1051" width="62.9808" height="61.3731" fill="#0b0c10" />
  <polygon points="0.0000,0.0000 2.0000,0.0000 3.0000,-1.7321 4.7321,-0.7321 4.7321,1.2679 6.7321,1.2679 7.7321,3.0000 6.0000,4.0000 4.2679,3.0000 3.2679,4.7321 1.2679,4.7321 -0.7321,4.7321 -1.7321,3.0000 0.0000,2.0000" fill="#1f2833" stroke="#c5c6c7" stroke-width="0.06" stroke-linejoin="round" />
  <polygon points="-3.0000,-1.7321 -2.0000,0.0000 0.0000,0.0000 0.0000,2.0000 -1.7321,3.0000 -0.7321,4.7321 -1.7321,6.4641 -3.4641,5.4641 -3.4641,3.4641 -5.4641,3.4641 -6.4641,1.7321 -7.4641,0.0000 -6.4641,-1.7321 -4.7321,-0.7321" fill="#1b4d3e" stroke="#c5c6c7" stroke-width="0.06" stroke-linejoin="round" />
  <polygon points="-6.4641,1.7321 -5.4641,3.4641 -3.4641,3.4641 -3.4641,5.4641 -5.1962,6.4641 -4.1962,8.1962 -5.1962,9.9282 -6.9282,8.9282 -6.9282,6.9282 -8.9282,6.9282 -9.9282,5.1962 -10.9282,3.4641 -9.9282,1.7321 -8.1962,2.7321" fill="#1b4d3e" stroke="#c5c6c7" stroke-width="0.06" stroke-linejoin="round" />
  <polygon points="-6.4641,-1.7321 -7.4641,0.0000 -6.4641,1.7321 -8.1962,2.7321 -9.9282,1.7321 -10.9282,3.4641 -12.9282,3.4641 -12.9282,1.4641 -11.1962,0.4641 -12.1962,-1.2679 -11.1962,-3.0000 -10.1962,-4.7321 -8.1962,-4.7321 -8.1962,-2.7321" fill="#2d3748" stroke="#c5c6c7" stroke-width="0.06" stroke-linejoin="round" />
  <polygon points="-3.4641,-3.4641 -5.4641,-3.4641 -6.4641,-1.7321 -8.1962,-2.7321 -8.1962,-4.7321 -10.1962,-4.7321 -11.1962,-6.4641 -9.4641,-7.4641 -7.7321,-6.4641 -6.7321,-8.1962 -4.7321,-8.1962 -2.7321,-8.1962 -1.7321,-6.4641 -3.4641,-5.4641" fill="#1e3a8a" stroke="#c5c6c7" stroke-width="0.06" stroke-linejoin="round" />
  <polygon points="-4.7321,-8.1962 -6.7321,-8.1962 -7.7321,-6.4641 -9.4641,-7.4641 -9.4641,-9.4641 -11.4641,-9.4641 -12.4641,-11.1962 -10.7321,-12.1962 -9.0000,-11.1962 -8.0000,-12.9282 -6.0000,-12.9282 -4.0000,-12.9282 -3.0000,-11.1962 -4.7321,-10.1962" fill="#1e3a8a" stroke="#c5c6c7" stroke-width="0.06" stroke-linejoin="round" />
  <polygon points="-1.7321,-6.4641 -2.7321,-8.1962 -4.7321,-8.1962 -4.7321,-10.1962 -3.0000,-11.1962 -4.0000,-12.9282 -3.0000,-14.6603 -1.2679,-13.6603 -1.2679,-11.6603 0.7321,-11.6603 1.7321,-9.9282 2.7321,-8.1962 1.7321,-6.4641 0.0000,-7.4641" fill="#4a5568" stroke="#c5c6c7" stroke-width="0.06" stroke-linejoin="round" />
  <polygon points="6.4641,-5.1962 5.4641,-3.4641 6.4641,-1.7321 4.7321,-0.7321 3.0000,-1.7321 2.0000,0.0000 0.0000,0.0000 0.0000,-2.0000 1.7321,-3.0000 0.7321,-4.7321 1.7321,-6.4641 2.7321,-8.1962 4.7321,-8.1962 4.7321,-6.1962" fill="#2d3748" stroke="#c5c6c7" stroke-width="0.06" stroke-linejoin="round" />
  <polygon points="1.7321,-3.0000 0.0000,-2.0000 0.0000,0.0000 -2.0000,0.0000 -3.0000,-1.7321 -4.7321,-0.7321 -6.4641,-1.7321 -5.4641,-3.4641 -3.4641,-3.4641 -3.4641,-5.4641 -1.7321,-6.4641 0.0000,-7.4641 1.7321,-6.4641 0.7321,-4.7321" fill="#1a365d" stroke="#c5c6c7" stroke-width="0.06" stroke-linejoin="round" />
  <polygon points="20.6603,-3.9282 21.6603,-5.6603 20.6603,-7.3923 22.3923,-8.3923 24.1244,-7.3923 25.1244,-9.1244 27.1244,-9.1244 27.1244,-7.1244 25.3923,-6.1244 26.3923,-4.3923 25.3923,-2.6603 24.3923,-0.9282 22.3923,-0.9282 22.3923,-2.9282" fill="#2563eb" stroke="#c5c6c7" stroke-width="0.06" stroke-linejoin="round" />
  <polygon points="17.6603,-2.1962 19.6603,-2.1962 20.6603,-3.9282 22.3923,-2.9282 22.3923,-0.9282 24.3923,-0.9282 25.3923,0.8038 23.6603,1.8038 21.9282,0.8038 20.9282,2.5359 18.9282,2.5359 16.9282,2.5359 15.9282,0.8038 17.6603,-0.1962" fill="#1f2833" stroke="#c5c6c7" stroke-width="0.06" stroke-linejoin="round" />
  <polygon points="18.9282,2.5359 20.9282,2.5359 21.9282,0.8038 23.6603,1.8038 23.6603,3.8038 25.6603,3.8038 26.6603,5.5359 24.9282,6.5359 23.1962,5.5359 22.1962,7.2679 20.1962,7.2679 18.1962,7.2679 17.1962,5.5359 18.9282,4.5359" fill="#1f2833" stroke="#c5c6c7" stroke-width="0.06" stroke-linejoin="round" />
  <polygon points="15.9282,0.8038 16.9282,2.5359 18.9282,2.5359 18.9282,4.5359 17.1962,5.5359 18.1962,7.2679 17.1962,9.0000 15.4641,8.0000 15.4641,6.0000 13.4641,6.0000 12.4641,4.2679 11.4641,2.5359 12.4641,0.8038 14.1962,1.8038" fill="#1b4d3e" stroke="#c5c6c7" stroke-width="0.06" stroke-linejoin="round" />
  <polygon points="15.9282,-2.6603 14.9282,-0.9282 15.9282,0.8038 14.1962,1.8038 12.4641,0.8038 11.4641,2.5359 9.4641,2.5359 9.4641,0.5359 11.1962,-0.4641 10.1962,-2.1962 11.1962,-3.9282 12.1962,-5.6603 14.1962,-5.6603 14.1962,-3.6603" fill="#2d3748" stroke="#c5c6c7" stroke-width="0.06" stroke-linejoin="round" />
  <polygon points="11.1962,-3.9282 10.1962,-2.1962 11.1962,-0.4641 9.4641,0.5359 7.7321,-0.4641 6.7321,1.2679 4.7321,1.2679 4.7321,-0.7321 6.4641,-1.7321 5.4641,-3.4641 6.4641,-5.1962 7.4641,-6.9282 9.4641,-6.9282 9.4641,-4.9282" fill="#2d3748" stroke="#c5c6c7" stroke-width="0.06" stroke-linejoin="round" />
  <polygon points="14.1962,-5.6603 12.1962,-5.6603 11.1962,-3.9282 9.4641,-4.9282 9.4641,-6.9282 7.4641,-6.9282 6.4641,-8.6603 8.1962,-9.6603 9.9282,-8.6603 10.9282,-10.3923 12.9282,-10.3923 14.9282,-10.3923 15.9282,-8.6603 14.1962,-7.6603" fill="#1e3a8a" stroke="#c5c6c7" stroke-width="0.06" stroke-linejoin="round" />
  <polygon points="19.3923,-12.1244 20.3923,-10.3923 22.3923,-10.3923 22.3923,-8.3923 20.6603,-7.3923 21.6603,-5.6603 20.6603,-3.9282 18.9282,-4.9282 18.9282,-6.9282 16.9282,-6.9282 15.9282,-8.6603 14.9282,-10.3923 15.9282,-12.1244 17.6603,-11.1244" fill="#1b4d3e" stroke="#c5c6c7" stroke-width="0.06" stroke-linejoin="round" />
  <polygon points="18.9282,-6.9282 18.9282,-4.9282 20.6603,-3.9282 19.6603,-2.1962 17.6603,-2.1962 17.6603,-0.1962 15.9282,0.8038 14.9282,-0.9282 15.9282,-2.6603 14.1962,-3.6603 14.1962,-5.6603 14.1962,-7.6603 15.9282,-8.6603 16.9282,-6.9282" fill="#004b49" stroke="#c5c6c7" stroke-width="0.06" stroke-linejoin="round" />
  <polygon points="34.8564,-6.1244 33.8564,-7.8564 31.8564,-7.8564 31.8564,-9.8564 33.5885,-10.8564 32.5885,-12.5885 33.5885,-14.3205 35.3205,-13.3205 35.3205,-11.3205 37.3205,-11.3205 38.3205,-9.5885 39.3205,-7.8564 38.3205,-6.1244 36.5885,-7.1244" fill="#4a5568" stroke="#c5c6c7" stroke-width="0.06" stroke-linejoin="round" />
  <polygon points="34.8564,-2.6603 35.8564,-4.3923 34.8564,-6.1244 36.5885,-7.1244 38.3205,-6.1244 39.3205,-7.8564 41.3205,-7.8564 41.3205,-5.8564 39.5885,-4.8564 40.5885,-3.1244 39.5885,-1.3923 38.5885,0.3397 36.5885,0.3397 36.5885,-1.6603" fill="#2563eb" stroke="#c5c6c7" stroke-width="0.06" stroke-linejoin="round" />
  <polygon points="39.5885,-1.3923 40.5885,-3.1244 39.5885,-4.8564 41.3205,-5.8564 43.0526,-4.8564 44.0526,-6.5885 46.0526,-6.5885 46.0526,-4.5885 44.3205,-3.5885 45.3205,-1.8564 44.3205,-0.1244 43.3205,1.6077 41.3205,1.6077 41.3205,-0.3923" fill="#2563eb" stroke="#c5c6c7" stroke-width="0.06" stroke-linejoin="round" />
  <polygon points="36.5885,0.3397 38.5885,0.3397 39.5885,-1.3923 41.3205,-0.3923 41.3205,1.6077 43.3205,1.6077 44.3205,3.3397 42.5885,4.3397 40.8564,3.3397 39.8564,5.0718 37.8564,5.0718 35.8564,5.0718 34.8564,3.3397 36.5885,2.3397" fill="#1f2833" stroke="#c5c6c7" stroke-width="0.06" stroke-linejoin="round" />
  <polygon points="33.5885,-1.3923 34.5885,0.3397 36.5885,0.3397 36.5885,2.3397 34.8564,3.3397 35.8564,5.0718 34.8564,6.8038 33.1244,5.8038 33.1244,3.8038 31.1244,3.8038 30.1244,2.0718 29.1244,0.3397 30.1244,-1.3923 31.8564,-0.3923" fill="#1b4d3e" stroke="#c5c6c7" stroke-width="0.06" stroke-linejoin="round" />
  <polygon points="30.1244,2.0718 31.1244,3.8038 33.1244,3.8038 33.1244,5.8038 31.3923,6.8038 32.3923,8.5359 31.3923,10.2679 29.6603,9.2679 29.6603,7.2679 27.6603,7.2679 26.6603,5.5359 25.6603,3.8038 26.6603,2.0718 28.3923,3.0718" fill="#1b4d3e" stroke="#c5c6c7" stroke-width="0.06" stroke-linejoin="round" />
  <polygon points="30.1244,-1.3923 29.1244,0.3397 30.1244,2.0718 28.3923,3.0718 26.6603,2.0718 25.6603,3.8038 23.6603,3.8038 23.6603,1.8038 25.3923,0.8038 24.3923,-0.9282 25.3923,-2.6603 26.3923,-4.3923 28.3923,-4.3923 28.3923,-2.3923" fill="#2d3748" stroke="#c5c6c7" stroke-width="0.06" stroke-linejoin="round" />
  <polygon points="27.1244,-9.1244 29.1244,-9.1244 30.1244,-10.8564 31.8564,-9.8564 31.8564,-7.8564 33.8564,-7.8564 34.8564,-6.1244 33.1244,-5.1244 31.3923,-6.1244 30.3923,-4.3923 28.3923,-4.3923 26.3923,-4.3923 25.3923,-6.1244 27.1244,-7.1244" fill="#1f2833" stroke="#c5c6c7" stroke-width="0.06" stroke-linejoin="round" />
  <polygon points="31.3923,-6.1244 33.1244,-5.1244 34.8564,-6.1244 35.8564,-4.3923 34.8564,-2.6603 36.5885,-1.6603 36.5885,0.3397 34.5885,0.3397 33.5885,-1.3923 31.8564,-0.3923 30.1244,-1.3923 28.3923,-2.3923 28.3923,-4.3923 30.3923,-4.3923" fill="#112233" stroke="#c5c6c7" stroke-width="0.06" stroke-linejoin="round" />
  <polygon points="21.1244,-22.0526 19.1244,-22.0526 18.1244,-20.3205 16.3923,-21.3205 16.3923,-23.3205 14.3923,-23.3205 13.3923,-25.0526 15.1244,-26.0526 16.8564,-25.0526 17.8564,-26.7846 19.8564,-26.7846 21.8564,-26.7846 22.8564,-25.0526 21.1244,-24.0526" fill="#1e3a8a" stroke="#c5c6c7" stroke-width="0.06" stroke-linejoin="round" />
  <polygon points="24.1244,-20.3205 23.1244,-22.0526 21.1244,-22.0526 21.1244,-24.0526 22.8564,-25.0526 21.8564,-26.7846 22.8564,-28.5167 24.5885,-27.5167 24.5885,-25.5167 26.5885,-25.5167 27.5885,-23.7846 28.5885,-22.0526 27.5885,-20.3205 25.8564,-21.3205" fill="#4a5568" stroke="#c5c6c7" stroke-width="0.06" stroke-linejoin="round" />
  <polygon points="27.5885,-23.7846 26.5885,-25.5167 24.5885,-25.5167 24.5885,-27.5167 26.3205,-28.5167 25.3205,-30.2487 26.3205,-31.9808 28.0526,-30.9808 28.0526,-28.9808 30.0526,-28.9808 31.0526,-27.2487 32.0526,-25.5167 31.0526,-23.7846 29.3205,-24.7846" fill="#4a5568" stroke="#c5c6c7" stroke-width="0.06" stroke-linejoin="round" />
  <polygon points="27.5885,-20.3205 28.5885,-22.0526 27.5885,-23.7846 29.3205,-24.7846 31.0526,-23.7846 32.0526,-25.5167 34.0526,-25.5167 34.0526,-23.5167 32.3205,-22.5167 33.3205,-20.7846 32.3205,-19.0526 31.3205,-17.3205 29.3205,-17.3205 29.3205,-19.3205" fill="#2563eb" stroke="#c5c6c7" stroke-width="0.06" stroke-linejoin="round" />
  <polygon points="24.5885,-18.5885 26.5885,-18.5885 27.5885,-20.3205 29.3205,-19.3205 29.3205,-17.3205 31.3205,-17.3205 32.3205,-15.5885 30.5885,-14.5885 28.8564,-15.5885 27.8564,-13.8564 25.8564,-13.8564 23.8564,-13.8564 22.8564,-15.5885 24.5885,-16.5885" fill="#1f2833" stroke="#c5c6c7" stroke-width="0.06" stroke-linejoin="round" />
  <polygon points="25.8564,-13.8564 27.8564,-13.8564 28.8564,-15.5885 30.5885,-14.5885 30.5885,-12.5885 32.5885,-12.5885 33.5885,-10.8564 31.8564,-9.8564 30.1244,-10.8564 29.1244,-9.1244 27.1244,-9.1244 25.1244,-9.1244 24.1244,-10.8564 25.8564,-11.8564" fill="#1f2833" stroke="#c5c6c7" stroke-width="0.06" stroke-linejoin="round" />
  <polygon points="22.8564,-15.5885 23.8564,-13.8564 25.8564,-13.8564 25.8564,-11.8564 24.1244,-10.8564 25.1244,-9.1244 24.1244,-7.3923 22.3923,-8.3923 22.3923,-10.3923 20.3923,-10.3923 19.3923,-12.1244 18.3923,-13.8564 19.3923,-15.5885 21.1244,-14.5885" fill="#1b4d3e" stroke="#c5c6c7" stroke-width="0.06" stroke-linejoin="round" />
  <polygon points="14.6603,-16.8564 15.6603,-18.5885 14.6603,-20.3205 16.3923,-21.3205 18.1244,-20.3205 19.1244,-22.0526 21.1244,-22.0526 21.1244,-20.0526 19.3923,-19.0526 20.3923,-17.3205 19.3923,-15.5885 18.3923,-13.8564 16.3923,-13.8564 16.3923,-15.8564" fill="#2563eb" stroke="#c5c6c7" stroke-width="0.06" stroke-linejoin="round" />
  <polygon points="19.3923,-19.0526 21.1244,-20.0526 21.1244,-22.0526 23.1244,-22.0526 24.1244,-20.3205 25.8564,-21.3205 27.5885,-20.3205 26.5885,-18.5885 24.5885,-18.5885 24.5885,-16.5885 22.8564,-15.5885 21.1244,-14.5885 19.3923,-15.5885 20.3923,-17.3205" fill="#0d9488" stroke="#c5c6c7" stroke-width="0.06" stroke-linejoin="round" />
  <polygon points="32.7846,-37.1769 30.7846,-37.1769 29.7846,-35.4449 28.0526,-36.4449 28.0526,-38.4449 26.0526,-38.4449 25.0526,-40.1769 26.7846,-41.1769 28.5167,-40.1769 29.5167,-41.9090 31.5167,-41.9090 33.5167,-41.9090 34.5167,-40.1769 32.7846,-39.1769" fill="#1e3a8a" stroke="#c5c6c7" stroke-width="0.06" stroke-linejoin="round" />
  <polygon points="35.7846,-35.4449 34.7846,-37.1769 32.7846,-37.1769 32.7846,-39.1769 34.5167,-40.1769 33.5167,-41.9090 34.5167,-43.6410 36.2487,-42.6410 36.2487,-40.6410 38.2487,-40.6410 39.2487,-38.9090 40.2487,-37.1769 39.2487,-35.4449 37.5167,-36.4449" fill="#4a5568" stroke="#c5c6c7" stroke-width="0.06" stroke-linejoin="round" />
  <polygon points="39.2487,-38.9090 38.2487,-40.6410 36.2487,-40.6410 36.2487,-42.6410 37.9808,-43.6410 36.9808,-45.3731 37.9808,-47.1051 39.7128,-46.1051 39.7128,-44.1051 41.7128,-44.1051 42.7128,-42.3731 43.7128,-40.6410 42.7128,-38.9090 40.9808,-39.9090" fill="#4a5568" stroke="#c5c6c7" stroke-width="0.06" stroke-linejoin="round" />
  <polygon points="39.2487,-35.4449 40.2487,-37.1769 39.2487,-38.9090 40.9808,-39.9090 42.7128,-38.9090 43.7128,-40.6410 45.7128,-40.6410 45.7128,-38.6410 43.9808,-37.6410 44.9808,-35.9090 43.9808,-34.1769 42.9808,-32.4449 40.9808,-32.4449 40.9808,-34.4449" fill="#2563eb" stroke="#c5c6c7" stroke-width="0.06" stroke-linejoin="round" />
  <polygon points="36.2487,-33.7128 38.2487,-33.7128 39.2487,-35.4449 40.9808,-34.4449 40.9808,-32.4449 42.9808,-32.4449 43.9808,-30.7128 42.2487,-29.7128 40.5167,-30.7128 39.5167,-28.9808 37.5167,-28.9808 35.5167,-28.9808 34.5167,-30.7128 36.2487,-31.7128" fill="#1f2833" stroke="#c5c6c7" stroke-width="0.06" stroke-linejoin="round" />
  <polygon points="37.5167,-28.9808 39.5167,-28.9808 40.5167,-30.7128 42.2487,-29.7128 42.2487,-27.7128 44.2487,-27.7128 45.2487,-25.9808 43.5167,-24.9808 41.7846,-25.9808 40.7846,-24.2487 38.7846,-24.2487 36.7846,-24.2487 35.7846,-25.9808 37.5167,-26.9808" fill="#1f2833" stroke="#c5c6c7" stroke-width="0.06" stroke-linejoin="round" />
  <polygon points="34.5167,-30.7128 35.5167,-28.9808 37.5167,-28.9808 37.5167,-26.9808 35.7846,-25.9808 36.7846,-24.2487 35.7846,-22.5167 34.0526,-23.5167 34.0526,-25.5167 32.0526,-25.5167 31.0526,-27.2487 30.0526,-28.9808 31.0526,-30.7128 32.7846,-29.7128" fill="#1b4d3e" stroke="#c5c6c7" stroke-width="0.06" stroke-linejoin="round" />
  <polygon points="26.3205,-31.9808 27.3205,-33.7128 26.3205,-35.4449 28.0526,-36.4449 29.7846,-35.4449 30.7846,-37.1769 32.7846,-37.1769 32.7846,-35.1769 31.0526,-34.1769 32.0526,-32.4449 31.0526,-30.7128 30.0526,-28.9808 28.0526,-28.9808 28.0526,-30.9808" fill="#2563eb" stroke="#c5c6c7" stroke-width="0.06" stroke-linejoin="round" />
  <polygon points="31.0526,-34.1769 32.7846,-35.1769 32.7846,-37.1769 34.7846,-37.1769 35.7846,-35.4449 37.5167,-36.4449 39.2487,-35.4449 38.2487,-33.7128 36.2487,-33.7128 36.2487,-31.7128 34.5167,-30.7128 32.7846,-29.7128 31.0526,-30.7128 32.0526,-32.4449" fill="#0d9488" stroke="#c5c6c7" stroke-width="0.06" stroke-linejoin="round" />
  <polygon points="12.1244,-33.2487 11.1244,-31.5167 12.1244,-29.7846 10.3923,-28.7846 8.6603,-29.7846 7.6603,-28.0526 5.6603,-28.0526 5.6603,-30.0526 7.3923,-31.0526 6.3923,-32.7846 7.3923,-34.5167 8.3923,-36.2487 10.3923,-36.2487 10.3923,-34.2487" fill="#2d3748" stroke="#c5c6c7" stroke-width="0.06" stroke-linejoin="round" />
  <polygon points="15.1244,-34.9808 13.1244,-34.9808 12.1244,-33.2487 10.3923,-34.2487 10.3923,-36.2487 8.3923,-36.2487 7.3923,-37.9808 9.1244,-38.9808 10.8564,-37.9808 11.8564,-39.7128 13.8564,-39.7128 15.8564,-39.7128 16.8564,-37.9808 15.1244,-36.9808" fill="#1e3a8a" stroke="#c5c6c7" stroke-width="0.06" stroke-linejoin="round" />
  <polygon points="13.8564,-39.7128 11.8564,-39.7128 10.8564,-37.9808 9.1244,-38.9808 9.1244,-40.9808 7.1244,-40.9808 6.1244,-42.7128 7.8564,-43.7128 9.5885,-42.7128 10.5885,-44.4449 12.5885,-44.4449 14.5885,-44.4449 15.5885,-42.7128 13.8564,-41.7128" fill="#1e3a8a" stroke="#c5c6c7" stroke-width="0.06" stroke-linejoin="round" />
  <polygon points="16.8564,-37.9808 15.8564,-39.7128 13.8564,-39.7128 13.8564,-41.7128 15.5885,-42.7128 14.5885,-44.4449 15.5885,-46.1769 17.3205,-45.1769 17.3205,-43.1769 19.3205,-43.1769 20.3205,-41.4449 21.3205,-39.7128 20.3205,-37.9808 18.5885,-38.9808" fill="#4a5568" stroke="#c5c6c7" stroke-width="0.06" stroke-linejoin="round" />
  <polygon points="16.8564,-34.5167 17.8564,-36.2487 16.8564,-37.9808 18.5885,-38.9808 20.3205,-37.9808 21.3205,-39.7128 23.3205,-39.7128 23.3205,-37.7128 21.5885,-36.7128 22.5885,-34.9808 21.5885,-33.2487 20.5885,-31.5167 18.5885,-31.5167 18.5885,-33.5167" fill="#2563eb" stroke="#c5c6c7" stroke-width="0.06" stroke-linejoin="round" />
  <polygon points="21.5885,-33.2487 22.5885,-34.9808 21.5885,-36.7128 23.3205,-37.7128 25.0526,-36.7128 26.0526,-38.4449 28.0526,-38.4449 28.0526,-36.4449 26.3205,-35.4449 27.3205,-33.7128 26.3205,-31.9808 25.3205,-30.2487 23.3205,-30.2487 23.3205,-32.2487" fill="#2563eb" stroke="#c5c6c7" stroke-width="0.06" stroke-linejoin="round" />
  <polygon points="18.5885,-31.5167 20.5885,-31.5167 21.5885,-33.2487 23.3205,-32.2487 23.3205,-30.2487 25.3205,-30.2487 26.3205,-28.5167 24.5885,-27.5167 22.8564,-28.5167 21.8564,-26.7846 19.8564,-26.7846 17.8564,-26.7846 16.8564,-28.5167 18.5885,-29.5167" fill="#1f2833" stroke="#c5c6c7" stroke-width="0.06" stroke-linejoin="round" />
  <polygon points="13.3923,-25.0526 12.3923,-26.7846 10.3923,-26.7846 10.3923,-28.7846 12.1244,-29.7846 11.1244,-31.5167 12.1244,-33.2487 13.8564,-32.2487 13.8564,-30.2487 15.8564,-30.2487 16.8564,-28.5167 17.8564,-26.7846 16.8564,-25.0526 15.1244,-26.0526" fill="#4a5568" stroke="#c5c6c7" stroke-width="0.06" stroke-linejoin="round" />
  <polygon points="13.8564,-30.2487 13.8564,-32.2487 12.1244,-33.2487 13.1244,-34.9808 15.1244,-34.9808 15.1244,-36.9808 16.8564,-37.9808 17.8564,-36.2487 16.8564,-34.5167 18.5885,-33.5167 18.5885,-31.5167 18.5885,-29.5167 16.8564,-28.5167 15.8564,-30.2487" fill="#1d4ed8" stroke="#c5c6c7" stroke-width="0.06" stroke-linejoin="round" />
  <polygon points="9.9282,-21.5885 8.9282,-23.3205 6.9282,-23.3205 6.9282,-25.3205 8.6603,-26.3205 7.6603,-28.0526 8.6603,-29.7846 10.3923,-28.7846 10.3923,-26.7846 12.3923,-26.7846 13.3923,-25.0526 14.3923,-23.3205 13.3923,-21.5885 11.6603,-22.5885" fill="#4a5568" stroke="#c5c6c7" stroke-width="0.06" stroke-linejoin="round" />
  <polygon points="9.9282,-18.1244 10.9282,-19.8564 9.9282,-21.5885 11.6603,-22.5885 13.3923,-21.5885 14.3923,-23.3205 16.3923,-23.3205 16.3923,-21.3205 14.6603,-20.3205 15.6603,-18.5885 14.6603,-16.8564 13.6603,-15.1244 11.6603,-15.1244 11.6603,-17.1244" fill="#2563eb" stroke="#c5c6c7" stroke-width="0.06" stroke-linejoin="round" />
  <polygon points="11.6603,-15.1244 13.6603,-15.1244 14.6603,-16.8564 16.3923,-15.8564 16.3923,-13.8564 18.3923,-13.8564 19.3923,-12.1244 17.6603,-11.1244 15.9282,-12.1244 14.9282,-10.3923 12.9282,-10.3923 10.9282,-10.3923 9.9282,-12.1244 11.6603,-13.1244" fill="#1f2833" stroke="#c5c6c7" stroke-width="0.06" stroke-linejoin="round" />
  <polygon points="8.6603,-16.8564 9.6603,-15.1244 11.6603,-15.1244 11.6603,-13.1244 9.9282,-12.1244 10.9282,-10.3923 9.9282,-8.6603 8.1962,-9.6603 8.1962,-11.6603 6.1962,-11.6603 5.1962,-13.3923 4.1962,-15.1244 5.1962,-16.8564 6.9282,-15.8564" fill="#1b4d3e" stroke="#c5c6c7" stroke-width="0.06" stroke-linejoin="round" />
  <polygon points="5.1962,-13.3923 6.1962,-11.6603 8.1962,-11.6603 8.1962,-9.6603 6.4641,-8.6603 7.4641,-6.9282 6.4641,-5.1962 4.7321,-6.1962 4.7321,-8.1962 2.7321,-8.1962 1.7321,-9.9282 0.7321,-11.6603 1.7321,-13.3923 3.4641,-12.3923" fill="#1b4d3e" stroke="#c5c6c7" stroke-width="0.06" stroke-linejoin="round" />
  <polygon points="5.1962,-16.8564 4.1962,-15.1244 5.1962,-13.3923 3.4641,-12.3923 1.7321,-13.3923 0.7321,-11.6603 -1.2679,-11.6603 -1.2679,-13.6603 0.4641,-14.6603 -0.5359,-16.3923 0.4641,-18.1244 1.4641,-19.8564 3.4641,-19.8564 3.4641,-17.8564" fill="#2d3748" stroke="#c5c6c7" stroke-width="0.06" stroke-linejoin="round" />
  <polygon points="2.1962,-24.5885 4.1962,-24.5885 5.1962,-26.3205 6.9282,-25.3205 6.9282,-23.3205 8.9282,-23.3205 9.9282,-21.5885 8.1962,-20.5885 6.4641,-21.5885 5.4641,-19.8564 3.4641,-19.8564 1.4641,-19.8564 0.4641,-21.5885 2.1962,-22.5885" fill="#1f2833" stroke="#c5c6c7" stroke-width="0.06" stroke-linejoin="round" />
  <polygon points="6.4641,-21.5885 8.1962,-20.5885 9.9282,-21.5885 10.9282,-19.8564 9.9282,-18.1244 11.6603,-17.1244 11.6603,-15.1244 9.6603,-15.1244 8.6603,-16.8564 6.9282,-15.8564 5.1962,-16.8564 3.4641,-17.8564 3.4641,-19.8564 5.4641,-19.8564" fill="#112233" stroke="#c5c6c7" stroke-width="0.06" stroke-linejoin="round" />
</svg>
