<svg xmlns="http://www.w3.org/2000/svg" viewBox="-14.9282 -16.6603 24.6603 25.1244" width="100%" height="100%">
  <!-- Background -->
  <rect x="-14.9282" y="-16.6603" width="24.6603" height="25.1244" fill="#0b0c10" />
  <polygon points="0.0000,0.0000 2.0000,0.0000 3.0000,-1.7321 4.7321,-0.7321 4.7321,1.2679 6.7321,1.2679 7.7321,3.0000 6.0000,4.0000 4.2679,3.0000 3.2679,4.7321 1.2679,4.7321 -0.7321,4.7321 -1.7321,3.0000 0.0000,2.0000" fill="#1f2833" stroke="#c5c6c7" stroke-width="0.06" stroke-linejoin="round" />
  <polygon points="-3.0000,-1.7321 -2.0000,0.0000 0.0000,0.0000 0.0000,2.0000 -1.7321,3.0000 -0.7321,4.7321 -1.7321,6.4641 -3.4641,5.4641 -3.4641,3.4641 -5.4641,3.4641 -6.4641,1.7321 -7.4641,0.0000 -6.4641,-1.7321 -4.7321,-0.7321" fill="#1b4d3e" stroke="#c5c6c7" stroke-width="0.06" stroke-linejoin="round" />
  <polygon points="-6.4641,-1.7321 -7.4641,0.0000 -6.4641,1.7321 -8.1962,2.7321 -9.9282,1.7321 -10.9282,3.4641 -12.9282,3.4641 -12.9282,1.4641 -11.1962,0.4641 -12.1962,-1.2679 -11.1962,-3.0000 -10.1962,-4.7321 -8.1962,-4.7321 -8.1962,-2.7321" fill="#2d3748" stroke="#c5c6c7" stroke-width="0.06" stroke-linejoin="round" />
  <polygon points="-3.4641,-3.4641 -5.4641,-3.4641 -6.4641,-1.7321 -8.1962,-2.7321 -8.1962,-4.7321 -10.1962,-4.7321 -11.1962,-6.4641 -9.4641,-7.4641 -7.7321,-6.4641 -6.7321,-8.1962 -4.7321,-8.1962 -2.7321,-8.1962 -1.7321,-6.4641 -3.4641,-5.4641" fill="#1e3a8a" stroke="#c5c6c7" stroke-width="0.06" stroke-linejoin="round" />
  <polygon points="-4.7321,-8.1962 -6.7321,-8.1962 -7.7321,-6.4641 -9.4641,-7.4641 -9.4641,-9.4641 -11.4641,-9.4641 -12.4641,-11.1962 -10.7321,-12.1962 -9.0000,-11.1962 -8.0000,-12.9282 -6.0000,-12.9282 -4.0000,-12.9282 -3.0000,-11.1962 -4.7321,-10.1962" fill="#1e3a8a" stroke="#c5c6c7" stroke-width="0.06" stroke-linejoin="round" />
  <polygon points="-1.7321,-6.4641 -2.7321,-8.1962 -4.7321,-8.1962 -4.7321,-10.1962 -3.0000,-11.1962 -4.0000,-12.9282 -3.0000,-14.6603 -1.2679,-13.6603 -1.2679,-11.6603 0.7321,-11.6603 1.7321,-9.9282 2.7321,-8.1962 1.7321,-6.4641 0.0000,-7.4641" fill="#4a5568" stroke="#c5c6c7" stroke-width="0.06" stroke-linejoin="round" />
  <polygon points="6.4641,-5.1962 5.4641,-3.4641 6.4641,-1.7321 4.7321,-0.7321 3.0000,-1.7321 2.0000,0.0000 0.0000,0.0000 0.0000,-2.0000 1.7321,-3.0000 0.7321,-4.7321 1.7321,-6.4641 2.7321,-8.1962 4.7321,-8.1962 4.7321,-6.1962" fill="#2d3748" stroke="#c5c6c7" stroke-width="0.06" stroke-linejoin="round" />
  <polygon points="1.7321,-3.0000 0.0000,-2.0000 0.0000,0.0000 -2.0000,0.0000 -3.0000,-1.7321 -4.7321,-0.7321 -6.4641,-1.7321 -5.4641,-3.4641 -3.4641,-3.4641 -3.4641,-5.4641 -1.7321,-6.4641 0.0000,-7.4641 1.7321,-6.4641 0.7321,-4.7321" fill="#1a365d" stroke="#c5c6c7" stroke-width="0.06" stroke-linejoin="round" />
</svg>
